<?xml version="1.0" encoding="UTF-8" standalone="no"?>
<!-- Created with Inkscape (http://www.inkscape.org/) -->

<svg
   width="132.29167mm"
   height="10.85995mm"
   viewBox="0 0 132.29168 10.85995"
   version="1.1"
   id="svg1"
   inkscape:version="1.4 (86a8ad7, 2024-10-11)"
   sodipodi:docname="Jaguar_wordmark_2021.svg"
   xmlns:inkscape="http://www.inkscape.org/namespaces/inkscape"
   xmlns:sodipodi="http://sodipodi.sourceforge.net/DTD/sodipodi-0.dtd"
   xmlns="http://www.w3.org/2000/svg"
   xmlns:svg="http://www.w3.org/2000/svg">
  <sodipodi:namedview
     id="namedview1"
     pagecolor="#ffffff"
     bordercolor="#000000"
     borderopacity="0.25"
     inkscape:showpageshadow="2"
     inkscape:pageopacity="0.0"
     inkscape:pagecheckerboard="0"
     inkscape:deskcolor="#d1d1d1"
     inkscape:document-units="mm"
     inkscape:zoom="2.7901515"
     inkscape:cx="265.75618"
     inkscape:cy="52.147706"
     inkscape:window-width="1920"
     inkscape:window-height="1001"
     inkscape:window-x="-9"
     inkscape:window-y="-9"
     inkscape:window-maximized="1"
     inkscape:current-layer="layer1" />
  <defs
     id="defs1" />
  <g
     inkscape:label="Layer 1"
     inkscape:groupmode="layer"
     id="layer1"
     transform="translate(-93.974292,-108.61336)">
    <path
       id="path16"
       fill="#231f20"
       fill-opacity="1"
       fill-rule="nonzero"
       stroke="none"
       d="m 179.27589,108.61336 v 5.23838 c 0,1.35622 -0.14889,2.42787 -0.83256,3.32374 -1.11178,1.45942 -3.15073,2.2973 -8.83832,2.2973 l -0.0591,5.3e-4 c -5.65675,0 -7.7059,-0.83975 -8.81675,-2.29546 -0.68366,-0.89678 -0.83139,-1.96983 -0.83139,-3.32512 v -5.23791 h 3.91394 v 5.0888 c 0,1.36571 0.17185,2.16836 0.67254,2.87267 0.84647,1.1927 2.30797,1.62336 4.93597,1.62336 h 0.33233 c 2.74882,0 4.0895,-0.43066 4.93597,-1.62383 0.50069,-0.70617 0.67323,-1.54313 0.67323,-2.8685 v -5.0939 z m 38.92679,1.32584 c 1.46683,0 2.1171,0.13636 2.56354,0.47054 0.42393,0.31748 0.57536,0.80264 0.57536,1.55681 v 0.19759 c 0,0.68065 -0.16234,1.23329 -0.66187,1.57977 -0.49119,0.33974 -1.1788,0.41489 -2.42949,0.41489 h -7.75832 v -4.2196 z m 1.90374,5.47376 c 1.47101,-0.0489 2.71777,-0.27086 3.67833,-0.78849 0.99676,-0.53686 1.47171,-1.55008 1.47171,-2.60086 0,-1.40469 -0.62779,-2.3045 -1.77134,-2.80728 -1.01646,-0.44804 -2.27202,-0.60157 -4.77294,-0.60157 h -12.13376 v 10.51202 h 3.91348 v -3.64355 h 5.14122 l 5.86477,3.64355 h 4.76807 z m -68.42226,2.30821 v -3.4223 h 3.89494 v 4.82605 h -11.3258 c -2.12359,0 -3.79683,-0.24676 -5.0598,-0.75557 -2.10413,-0.84879 -3.06632,-2.39957 -3.06632,-4.51946 0,-2.00161 1.04777,-3.39029 2.38125,-4.13727 1.41813,-0.79475 3.01552,-1.09926 5.67623,-1.09926 h 10.99578 v 1.40375 h -9.77686 c -2.09532,0 -3.23677,0.31657 -4.10667,1.02412 -0.77318,0.62778 -1.18483,1.56841 -1.18483,2.82768 -6.5e-4,1.30171 0.43275,2.26297 1.25905,2.89307 0.87245,0.6635 2.04754,0.95848 4.06468,0.95848 z m -40.9251,-9.10781 v 5.12637 c 0,1.6584 -0.3805,2.66396 -1.16872,3.47053 -1.37532,1.40701 -4.01348,1.91512 -7.74607,1.91512 h -7.869978 v -1.41094 h 7.245378 c 2.22306,0 3.72533,-0.36781 4.63113,-1.26321 0.68603,-0.67718 0.99449,-1.62151 0.99449,-3.02527 v -4.8126 z m 86.02812,8.27362 h -11.59573 l -1.92184,2.2384 h -2.26878 l 9.11848,-10.51202 h 3.85782 l 9.12658,10.51202 h -4.3882 z m -10.42992,-1.35852 h 9.25993 l -4.63703,-5.38356 z m -58.02573,1.35852 h -11.59564 l -1.92205,2.2384 h -2.26864 l 9.1196,-10.51202 h 3.85598 l 9.12751,10.51202 h -4.38797 z m -10.42923,-1.35852 h 9.25924 l -4.63658,-5.38356 z"
       style="stroke-width:0.657383" />
  </g>
</svg>
